<svg xmlns="http://www.w3.org/2000/svg" viewBox="0 0 574.04 130.23"><defs><style>.cls-1{fill:#231815;}</style></defs><title>アセット 5</title><g id="レイヤー_2" data-name="レイヤー 2"><g id="レイヤー_1-2" data-name="レイヤー 1"><path class="cls-1" d="M104.28,50.68A30.66,30.66,0,0,0,94,44a35.32,35.32,0,0,0-13.4-2.45A32.33,32.33,0,0,0,67.47,44a29.71,29.71,0,0,0-9.15,6q-1.7,1.7-3.59,0a42.62,42.62,0,0,0-9.34-5.85,29.39,29.39,0,0,0-12.74-2.64A35.3,35.3,0,0,0,19.25,44,30.63,30.63,0,0,0,9,50.68,29.71,29.71,0,0,0,2.36,60.87,34.21,34.21,0,0,0,0,73.61v54.73H17V73.61a18.33,18.33,0,0,1,.94-5.85,15.54,15.54,0,0,1,2.83-5.1A14,14,0,0,1,25.67,59a16.27,16.27,0,0,1,7-1.41A15.68,15.68,0,0,1,39.54,59a14.24,14.24,0,0,1,4.81,3.68,15.64,15.64,0,0,1,2.83,5.1,18.42,18.42,0,0,1,.95,5.85v49.07h0v5.66h17V73.61A20.29,20.29,0,0,1,66,67.76a14.31,14.31,0,0,1,2.74-5.1A14.16,14.16,0,0,1,73.51,59a16.13,16.13,0,0,1,7.08-1.41A16.15,16.15,0,0,1,87.67,59a14.22,14.22,0,0,1,4.81,3.68,15.65,15.65,0,0,1,2.83,5.1,18.41,18.41,0,0,1,.94,5.85v54.73h17V73.61a34.21,34.21,0,0,0-2.36-12.74A29.7,29.7,0,0,0,104.28,50.68Z"/><path class="cls-1" d="M261,43.41h-6.79q-14.16,0-22.08,8.68t-7.93,22.46v53.79h17V75.49q0-7.17,3.49-11.61t10.66-4.43H261a5.23,5.23,0,0,0,5.66-5.66V49.07A5.23,5.23,0,0,0,261,43.41Z"/><path class="cls-1" d="M173,0H156.25a5.61,5.61,0,0,0-4.15,1.51,5.62,5.62,0,0,0-1.51,4.15v4.72a5.61,5.61,0,0,0,1.51,4.15A5.6,5.6,0,0,0,156.25,16h15.61q7.17,0,10.66,4.43T186,32.09V43.41H169.22a36.5,36.5,0,0,0-14.53,2.83,36,36,0,0,0-11.42,7.64,33.58,33.58,0,0,0-7.45,11.42,37.2,37.2,0,0,0-2.64,14v16.8a40.91,40.91,0,0,0,2.26,13.87,33.36,33.36,0,0,0,6.23,10.85,27.15,27.15,0,0,0,9.44,7,29.2,29.2,0,0,0,12.08,2.45A31.31,31.31,0,0,0,175.73,128a18.78,18.78,0,0,0,7.83-5.85,1.42,1.42,0,0,1,1.6-.66,1.3,1.3,0,0,1,.85,1.4v5.49h17V31.14q0-13.78-7.93-22.46T173,0Zm11.8,100.88a21.2,21.2,0,0,1-3.68,6.7,17.85,17.85,0,0,1-6.13,4.81,19.83,19.83,0,0,1-8.78,1.79q-7.55,0-11.79-4.53A16.41,16.41,0,0,1,150.16,98V79.27a20.34,20.34,0,0,1,5.19-14q5.19-5.85,14.63-5.85h14.16A1.67,1.67,0,0,1,186,61.32V79.27s0,0,0,0V93.24A24,24,0,0,1,184.79,100.88Z"/><path class="cls-1" d="M313,43.41h-6.8q-14.15,0-22.08,8.68T276.2,74.55v53.79h17v-5.66h0V75.49q0-7.17,3.49-11.61t10.66-4.43H313a5.22,5.22,0,0,0,5.66-5.66V49.07A5.22,5.22,0,0,0,313,43.41Z"/><path class="cls-1" d="M347.8,49.07a5.23,5.23,0,0,0-5.66-5.66h-5.66a5.22,5.22,0,0,0-5.66,5.66v73.61h0v5.66h17v-5.66h0Z"/><path class="cls-1" d="M475.32,50.68A30.66,30.66,0,0,0,465,44a35.32,35.32,0,0,0-13.4-2.45A32.33,32.33,0,0,0,438.51,44a29.71,29.71,0,0,0-9.15,6q-1.7,1.7-3.59,0a42.62,42.62,0,0,0-9.34-5.85,29.39,29.39,0,0,0-12.74-2.64A35.3,35.3,0,0,0,390.29,44,30.63,30.63,0,0,0,380,50.68a29.71,29.71,0,0,0-6.61,10.19A34.21,34.21,0,0,0,371,73.61v54.73h17V73.61a18.33,18.33,0,0,1,.94-5.85,15.54,15.54,0,0,1,2.83-5.1A14,14,0,0,1,396.71,59a16.27,16.27,0,0,1,7-1.41A15.68,15.68,0,0,1,410.58,59a14.24,14.24,0,0,1,4.81,3.68,15.64,15.64,0,0,1,2.83,5.1,18.42,18.42,0,0,1,.95,5.85v49.07h0v5.66h17V73.61a20.29,20.29,0,0,1,.85-5.85,14.31,14.31,0,0,1,2.74-5.1A14.16,14.16,0,0,1,444.55,59a18.41,18.41,0,0,1,14.16,0,14.22,14.22,0,0,1,4.81,3.68,15.65,15.65,0,0,1,2.83,5.1,18.41,18.41,0,0,1,.94,5.85v54.73h17V73.61a34.21,34.21,0,0,0-2.36-12.74A29.7,29.7,0,0,0,475.32,50.68Z"/><path class="cls-1" d="M566.12,8.68Q558.19,0,544,0H527.29a5.61,5.61,0,0,0-4.15,1.51,5.62,5.62,0,0,0-1.51,4.15v4.72a5.61,5.61,0,0,0,1.51,4.15A5.6,5.6,0,0,0,527.29,16H542.9q7.17,0,10.66,4.43t3.49,11.61V43.41H540.26a36.5,36.5,0,0,0-14.53,2.83,36,36,0,0,0-11.42,7.64,33.58,33.58,0,0,0-7.45,11.42,37.2,37.2,0,0,0-2.64,14v16.8a40.91,40.91,0,0,0,2.26,13.87,33.36,33.36,0,0,0,6.23,10.85,27.15,27.15,0,0,0,9.44,7,29.2,29.2,0,0,0,12.08,2.45A31.31,31.31,0,0,0,546.77,128a18.78,18.78,0,0,0,7.83-5.85,1.42,1.42,0,0,1,1.6-.66,1.3,1.3,0,0,1,.85,1.4v5.49h17V31.14Q574,17.37,566.12,8.68Zm-10.29,92.2a21.2,21.2,0,0,1-3.68,6.7,17.85,17.85,0,0,1-6.13,4.81,19.83,19.83,0,0,1-8.78,1.79q-7.55,0-11.79-4.53A16.41,16.41,0,0,1,521.2,98V79.27a20.34,20.34,0,0,1,5.19-14q5.19-5.85,14.63-5.85h14.16a1.67,1.67,0,0,1,1.88,1.87V79.27s0,0,0,0V93.24A24,24,0,0,1,555.83,100.88Z"/><path class="cls-1" d="M348.79,9.94a7.3,7.3,0,0,0-2.1.34,7.38,7.38,0,0,0-14.75,0,7.3,7.3,0,0,0-2.1-.34,7.37,7.37,0,0,0-2.46,14.33,7.37,7.37,0,0,0,11.93,8.66,7.37,7.37,0,0,0,11.93-8.66,7.37,7.37,0,0,0-2.46-14.33Zm-9.47,15.69a11.05,11.05,0,0,0-5.1-3.71,11,11,0,0,0,1.95-6,10,10,0,0,0,6.3,0,11,11,0,0,0,1.95,6A11.05,11.05,0,0,0,339.31,25.63Z"/></g></g></svg>